#N canvas 346 163 1385 499 12;
#X obj 378 209 delwrite~ \$0-dkfbdellop \$1;
#X obj 630 195 delread~ \$0-dkfbdellop \$2;
#X obj 398 64 inlet~;
#X obj 361 141 +~;
#X obj 495 426 outlet~;
#X obj 681 51 inlet;
#X text 733 54 feedback;
#X obj 818 46 inlet;
#X obj 866 291 f \$4;
#X text 873 47 dry;
#X obj 956 50 inlet;
#X obj 994 285 f \$5;
#X text 1009 47 wet;
#X obj 916 223 loadbang;
#X obj 866 316 moses 1e-05;
#X obj 994 310 moses 1e-05;
#X text 908 264 dry;
#X text 1026 257 wet;
#X msg 866 341 1;
#X obj 474 352 *~ 1;
#X obj 654 378 *~ 1;
#X msg 994 335 0.5;
#X obj 539 268 *~ \$3;
#X text 14 10 dkfbdellop~;
#X text 12 33 simple delay with fb;
#X text 13 144 ARGS:;
#X text 13 166 maxdelay/deltime/fb/dry(*1)/wet(*0.5);
#X text 10 105 * = defaults;
#X text 22 228 INLETS:;
#X text 464 64 input;
#X obj 539 53 inlet;
#X text 570 26 delaytime;
#X text 24 254 input/delaytimee/fb/dry/wet;
#X text 15 330 OUTLETS:;
#X text 17 353 signal~;
#X text 1157 17 derek kwan 2017;
#X text 1163 38 pdkm;
#X text 1163 60 gpl v 3;
#X connect 1 0 22 0;
#X connect 1 0 20 0;
#X connect 2 0 3 0;
#X connect 2 0 19 0;
#X connect 3 0 0 0;
#X connect 5 0 22 1;
#X connect 7 0 19 1;
#X connect 8 0 14 0;
#X connect 10 0 20 1;
#X connect 11 0 15 0;
#X connect 13 0 8 0;
#X connect 13 0 11 0;
#X connect 14 0 18 0;
#X connect 14 1 19 1;
#X connect 15 0 21 0;
#X connect 15 1 20 1;
#X connect 18 0 19 1;
#X connect 19 0 4 0;
#X connect 20 0 4 0;
#X connect 21 0 20 1;
#X connect 22 0 3 1;
#X connect 30 0 1 0;
