#N canvas 128 317 875 562 12;
#X obj 559 120 inlet;
#X obj 262 476 tabwrite~ \$1;
#X obj 243 133 inlet~;
#X obj 363 106 inlet;
#X text 345 148 play/rec;
#X obj 440 128 inlet;
#X text 444 152 off/on;
#X obj 363 224 f;
#X text 610 117 transport sync;
#X obj 451 21 loadbang;
#X obj 473 223 f;
#X obj 464 262 change 0;
#X obj 402 433 tabplay~ \$1;
#X obj 402 458 *~;
#X obj 369 260 change 0;
#X obj 243 350 *~;
#X msg 303 347 \$1 5;
#X obj 312 378 line~;
#X obj 546 410 line~;
#X msg 576 373 \$1 5;
#X obj 496 337 == 0;
#X text 32 518 minus 5 to make sure it falls before transport bang
;
#N canvas 247 199 807 544 syncer 0;
#X msg 140 254 1;
#X obj 99 169 t b b b;
#X msg 195 246 0;
#X obj 145 336 spigot 0;
#X obj 107 7 inlet;
#X obj 258 103 inlet;
#X text 321 89 transport sync;
#X obj 109 453 outlet;
#X text 284 431 goal: sync playback to transport;
#X text 278 463 idea: only let transport sync bangs in when;
#X text 284 487 the loop is done playing;
#X text 202 363 when done \, allow transport to restart process;
#X obj 194 300 f;
#X obj 104 59 sel 0 1;
#X obj 107 32 t f f;
#X obj 107 130 spigot;
#X text 185 61 only allow bangs in when playing;
#X obj 305 159 timer;
#X obj 306 191 - 5;
#X text 363 165 minus 5 to make sure it falls before transport bang
;
#X text 362 141 figure out recording time;
#X obj 140 195 delay 5;
#X obj 287 229 moses 5;
#X msg 289 256 5;
#X obj 289 281 f;
#X obj 36 458 outlet;
#X obj 70 94 t b b;
#X text 38 490 rec bang;
#X text 134 488 play bang;
#X connect 0 0 12 0;
#X connect 1 0 7 0;
#X connect 1 1 21 0;
#X connect 1 2 2 0;
#X connect 2 0 12 0;
#X connect 3 0 15 0;
#X connect 4 0 14 0;
#X connect 5 0 3 0;
#X connect 12 0 3 1;
#X connect 13 0 26 0;
#X connect 13 1 15 0;
#X connect 13 1 17 1;
#X connect 14 0 13 0;
#X connect 14 1 15 1;
#X connect 15 0 1 0;
#X connect 17 0 18 0;
#X connect 18 0 22 0;
#X connect 21 0 0 0;
#X connect 22 0 23 0;
#X connect 22 1 24 0;
#X connect 23 0 24 0;
#X connect 24 0 21 1;
#X connect 26 0 25 0;
#X connect 26 1 17 0;
#X restore 368 366 pd syncer;
#X obj 559 145 t b b b;
#X text 32 12 dkloopplay~: synced looper based on tabplay~;
#X text 10 159 in1: sig~ \, in2: play/rec;
#X text 10 183 in3: off/on \, in4: transport;
#X text 13 73 arg: sample array;
#X text 21 224 out~: sig;
#X text 27 38 Derek Kwan 2016 \, gpl v 3;
#X obj 402 483 outlet~;
#X obj 362 295 t f f;
#X connect 0 0 23 0;
#X connect 2 0 15 0;
#X connect 3 0 7 1;
#X connect 5 0 10 1;
#X connect 7 0 14 0;
#X connect 9 0 11 0;
#X connect 9 0 14 0;
#X connect 10 0 11 0;
#X connect 11 0 19 0;
#X connect 12 0 13 0;
#X connect 13 0 30 0;
#X connect 14 0 31 0;
#X connect 15 0 1 0;
#X connect 16 0 17 0;
#X connect 17 0 15 1;
#X connect 18 0 13 1;
#X connect 19 0 18 0;
#X connect 20 0 19 0;
#X connect 22 0 1 0;
#X connect 22 1 12 0;
#X connect 23 0 7 0;
#X connect 23 1 10 0;
#X connect 23 2 22 1;
#X connect 31 0 22 0;
#X connect 31 1 20 0;
#X connect 31 1 16 0;
