#N canvas 929 55 417 777 10;
#X obj 8 6 cnv 15 420 30 empty empty pdkm 20 12 0 20 -261682 -66577
0;
#X text 305 10 Derek Kwan \, 2016;
#X obj 8 36 cnv 15 420 30 empty empty dkmtx 20 12 0 20 -232576
-66577 0;
#X obj 15 438 cnv 15 400 100 empty empty inlet 20 12 0 15 -261682 -66577
0;
#X obj 15 589 cnv 15 400 140 empty empty args 20 12 0 15 -261682 -66577
0;
#X obj 15 538 cnv 15 400 50 empty empty outlet 20 12 0 15 -232576 -66577
0;
#N canvas 954 261 392 394 META 0;
#X text 0 96 INLET_2 float;
#X text 2 155 VERSION 0.1;
#X text 2 173 AUTHOR Derek Kwan;
#X text 3 191 RELEASE_DATE 2016;
#X text 4 210 WEBSITE http://www.derekxkwan.com/code/puredata-code.html
;
#X text 1 135 LIBRARY pdkm;
#X text 0 0 KEYWORDS metro multi control rate dkmtx;
#X text 0 19 LICENSE GPL v3;
#X text 0 38 DESCRIPTION control-rate multi-metro;
#X text 0 76 INLET_1 float;
#X text -1 55 INLET_0 float message bang;
#X text 1 116 OUTLET_0 bang;
#X restore 22 739 pd META;
#X text 247 43 control-rate multi-metro;
#X text 28 74 all the features of pd-vanillas metro plus more;
#X obj 51 290 pdkm/dkmtx 250 1 2 3 4 5;
#X obj 51 121 tgl 15 0 empty empty empty 17 7 0 10 -262144 -1 -1 0
1;
#X msg 78 122 bang;
#X msg 84 148 stop;
#X obj 51 324 bng 15 250 50 0 empty empty empty 17 7 0 10 -262144 -1
-1;
#X obj 104 325 bng 15 250 50 0 empty empty empty 17 7 0 10 -262144
-1 -1;
#X obj 158 326 bng 15 250 50 0 empty empty empty 17 7 0 10 -262144
-1 -1;
#X obj 211 325 bng 15 250 50 0 empty empty empty 17 7 0 10 -262144
-1 -1;
#X obj 265 329 bng 15 250 50 0 empty empty empty 17 7 0 10 -262144
-1 -1;
#X msg 104 178 tempo 2 msec;
#X text 199 173 set tempo in units of msec \, sec \,;
#X text 202 187 min \, samp (as with metro);
#X floatatom 265 252 5 0 0 0 - - -, f 5;
#X text 303 238 rightmost inlet;
#X text 305 255 msec per tick;
#X floatatom 192 227 5 0 0 0 - - -, f 5;
#X text 115 206 inner inlets change multiple of timebase/bang;
#X text 89 270 1;
#X text 119 270 2;
#X text 160 270 3;
#X text 193 270 4;
#X text 231 267 5;
#X text 60 308 1;
#X text 112 307 2;
#X text 165 310 3;
#X text 217 309 4;
#X text 270 309 5;
#N canvas 252 154 450 300 optional 0;
#X obj 166 125 pdkm/dkmtx 1 120 permin 1 2;
#X obj 167 99 tgl 15 0 empty empty empty 17 7 0 10 -262144 -1 -1 0
1;
#X obj 171 153 bng 15 250 50 0 empty empty empty 17 7 0 10 -262144
-1 -1;
#X obj 401 157 bng 15 250 50 0 empty empty empty 17 7 0 10 -262144
-1 -1;
#X text 36 26 - delay time(f);
#X text 37 42 - tempo (f) and time unit;
#X text 37 60 (symbol) as in "tempo" message;
#X text 38 115 just like metro;
#X text 38 192 see [delay] for tempo setting details:;
#X obj 323 192 delay;
#X text 37 13 optional creation args (taken from metro);
#X connect 0 0 2 0;
#X connect 0 1 3 0;
#X connect 1 0 0 0;
#X restore 330 330 pd optional;
#X text 61 613 TEMPO SPECIFIED BY 1 ARG:;
#X text 63 666 BY 3 ARGS:;
#X text 205 691 2:delay time(f);
#X text 80 681 1: msec/tick (f);
#X text 87 630 1: msec per tick (f \, timebase);
#X text 81 694 3: time unit (s);
#X text 57 456 1: float - 1 = on \, 0 = off;
#X text 81 472 message - bang = on \, stop = off;
#X text 139 486 - tempo(f)(s): multiple of unit \, unit;
#X text 57 519 1+n+1: unit/tick (default ms);
#X text 54 503 1+i for i= 1 ... n: multiple of timebase/bang;
#X text 85 647 1+i for i= 1 ... n: multiple of timebase/bang;
#X text 82 709 3+i for i= 1 ... n: multiple of timebase/bang;
#X text 57 557 i for i=1 \, n: bangs for each multiple;
#X connect 9 0 13 0;
#X connect 9 1 14 0;
#X connect 9 2 15 0;
#X connect 9 3 16 0;
#X connect 9 4 17 0;
#X connect 10 0 9 0;
#X connect 11 0 9 0;
#X connect 12 0 9 0;
#X connect 18 0 9 0;
#X connect 21 0 9 6;
#X connect 24 0 9 4;
