#N canvas 421 256 842 733 12;
#X obj 189 242 random 3;
#X obj 189 267 + 1;
#X obj 190 300 * 150;
#X obj 103 287 random 11;
#X obj 90 194 t b b;
#X obj 212 363 f;
#X obj 255 362 +;
#X obj 190 325 t b f;
#X msg 275 283 0;
#X obj 265 492 t b f;
#X obj 265 517 delay;
#X obj 118 449 pack f f;
#X obj 123 535 outlet;
#X text 153 566 pitch/dur list;
#X obj 113 392 spigot 1;
#X msg 335 494 0;
#X text 305 227 generate note events back to back with random durs
;
#X text 267 543 if < maxdur \, bang again after current note event
;
#X text 382 499 if >= maxdur \, block anything for escaping;
#X obj 86 113 inlet;
#X obj 82 143 t b b;
#X msg 49 270 1;
#X text 114 168 first unblock output;
#X obj 367 198 moses 0;
#X obj 284 456 moses 0;
#X text 416 152 maxdur (mult of baseunit);
#X obj 367 172 *;
#X text 97 35 multiples of baseunit \, less than maxdur;
#X text 39 82 trigger;
#X obj 270 137 moses 0;
#X text 155 117 baseunit (ms);
#X obj 275 80 inlet;
#X obj 365 98 inlet;
#X text 433 585 in1: trigger \, in2: baseunit \, in3: maxdur;
#X obj 270 112 f \$1;
#X obj 367 147 f \$2;
#X text 606 4 Derek Kwan \, 2016;
#X text 419 607 in4: pitchrange \, in5: maximum random mult;
#X text 353 643 arg1: baseunit (ms) \, arg2: maxdur;
#X text 18 8 DKSEQGEN1: generate sequences of random durations;
#X obj 488 50 inlet;
#X msg 490 129 11;
#X text 476 31 pitchrange(default 11);
#X obj 667 67 inlet;
#X text 443 176 default 1;
#X text 172 138 def: 150;
#X msg 300 181 150;
#X msg 337 399 1;
#X text 671 26 max rand mult;
#X obj 666 136 moses 1;
#X text 681 46 default 4;
#X msg 664 169 4;
#X obj 664 194 -1;
#X obj 434 9 loadbang;
#X obj 488 75 f \$3;
#X obj 667 92 f \$4;
#X text 311 288 reset counter;
#X obj 491 98 moses 1;
#X connect 0 0 1 0;
#X connect 1 0 2 0;
#X connect 2 0 7 0;
#X connect 3 0 14 0;
#X connect 4 0 3 0;
#X connect 4 1 0 0;
#X connect 5 0 6 0;
#X connect 6 0 5 1;
#X connect 6 0 24 0;
#X connect 7 0 5 0;
#X connect 7 1 6 1;
#X connect 8 0 5 1;
#X connect 9 0 10 0;
#X connect 9 1 10 1;
#X connect 9 1 11 1;
#X connect 10 0 4 0;
#X connect 11 0 12 0;
#X connect 14 0 11 0;
#X connect 15 0 14 1;
#X connect 19 0 20 0;
#X connect 20 0 4 0;
#X connect 20 1 21 0;
#X connect 20 1 8 0;
#X connect 21 0 14 1;
#X connect 23 0 47 0;
#X connect 23 1 24 1;
#X connect 24 0 9 0;
#X connect 24 1 15 0;
#X connect 26 0 23 0;
#X connect 29 0 46 0;
#X connect 29 1 26 1;
#X connect 31 0 34 0;
#X connect 32 0 35 0;
#X connect 34 0 29 0;
#X connect 35 0 26 0;
#X connect 40 0 54 0;
#X connect 41 0 3 1;
#X connect 43 0 55 0;
#X connect 46 0 26 1;
#X connect 47 0 24 1;
#X connect 49 0 51 0;
#X connect 49 1 52 0;
#X connect 51 0 52 0;
#X connect 52 0 0 1;
#X connect 53 0 34 0;
#X connect 53 0 35 0;
#X connect 53 0 54 0;
#X connect 53 0 55 0;
#X connect 54 0 57 0;
#X connect 55 0 49 0;
#X connect 57 0 41 0;
#X connect 57 1 3 1;
