#N canvas 448 167 636 533 10;
#X obj 8 6 cnv 15 420 30 empty empty pdkm 20 12 0 20 -261682 -66577
0;
#X text 305 10 Derek Kwan \, 2016;
#X obj 8 36 cnv 15 420 30 empty empty dksqlim~ 20 12 0 20 -232576 -66577
0;
#X obj 7 188 cnv 15 420 70 empty empty inlet 20 12 0 15 -261682 -66577
0;
#X obj 7 257 cnv 15 420 30 empty empty outlet 20 12 0 15 -232576 -66577
0;
#X obj 7 284 cnv 15 420 40 empty empty args 20 12 0 15 -261682 -66577
0;
#X text 97 191 1) f/sig~ - frequency;
#X text 97 211 2) float - phase (0-1);
#X text 97 260 1) sig~ - signal;
#X floatatom 174 89 5 0 0 0 - - -, f 5;
#X obj 174 134 *~ 0;
#X obj 271 147 tgl 15 0 empty empty empty 17 7 0 10 -262144 -1 -1 0
1;
#X text 293 146 sound;
#X obj 174 156 dac~ 1 2;
#X text 184 44 bandlimited square wave generator;
#X obj 174 112 pdkm/dksqlim~ 440;
#X text 97 287 1) float - frequency;
#N canvas 737 369 374 272 META 0;
#X text 3 136 VERSION 0.1;
#X text 3 154 AUTHOR Derek Kwan;
#X text 4 172 RELEASE_DATE 2016;
#X text 5 191 WEBSITE http://www.derekxkwan.com/code/puredata-code.html
;
#X text 2 116 LIBRARY pdkm;
#X text 2 97 OUTLET_0 signal;
#X text 0 57 INLET_0 float;
#X text 0 76 INLET_1 float;
#X text 0 0 KEYWORDS bandlimited wave square oscillator dksqlim;
#X text 0 38 DESCRIPTION bandlimited square wave generator;
#X text 0 19 LICENSE GPL v3;
#X restore 9 334 pd META;
#X connect 9 0 15 0;
#X connect 10 0 13 0;
#X connect 11 0 10 1;
#X connect 15 0 10 0;
