#N canvas 299 241 1033 522 10;
#X obj 460 59 loadbang;
#X msg 239 130 0;
#X obj 367 60 inlet;
#X obj 179 58 inlet;
#X obj 182 154 f;
#X obj 180 109 bang;
#X obj 237 155 + 1;
#X obj 327 178 moses 0;
#X obj 328 147 moses 1e-05;
#X obj 183 211 sel 15;
#X obj 552 153 moses 1e-06;
#X obj 270 61 inlet;
#X obj 184 181 t f f;
#X obj 217 264 outlet;
#X text 266 40 2 count up to;
#X text 123 32 1 incoming bangs;
#X text 384 41 3 stepsize;
#X text 653 53 in 1: incoming bangs;
#X text 653 71 in2/arg1: count up to;
#X obj 338 117 f \$2;
#X obj 515 124 f \$1;
#X obj 551 179 moses 0;
#X text 422 150 filter out zero;
#X obj 428 263 moses 0;
#X text 491 262 figure out sign;
#X obj 409 290 + 1;
#X obj 458 293 - 1;
#X text 403 319 if lim > 0 \, need one step below lim to reset to 0
;
#X text 410 339 else need one step above lim to reset to 0;
#X text 21 15 DXKVANCTR - DXK vanilla counter;
#X text 534 12 Derek Kwan - 2016;
#X text 661 87 in3/arg2: stepsize;
#X text 672 106 in4: reset;
#X obj 540 60 inlet;
#X text 536 38 4 reset;
#X connect 0 0 1 0;
#X connect 0 0 19 0;
#X connect 0 0 20 0;
#X connect 1 0 4 1;
#X connect 2 0 1 0;
#X connect 2 0 26 1;
#X connect 2 0 25 1;
#X connect 3 0 5 0;
#X connect 4 0 6 0;
#X connect 4 0 12 0;
#X connect 5 0 4 0;
#X connect 6 0 4 1;
#X connect 7 0 6 1;
#X connect 8 0 7 0;
#X connect 8 1 6 1;
#X connect 9 0 1 0;
#X connect 10 0 21 0;
#X connect 10 1 23 0;
#X connect 11 0 9 1;
#X connect 11 0 23 0;
#X connect 12 0 9 0;
#X connect 12 1 13 0;
#X connect 19 0 8 0;
#X connect 20 0 10 0;
#X connect 21 0 23 0;
#X connect 23 0 25 0;
#X connect 23 1 26 0;
#X connect 25 0 9 1;
#X connect 26 0 9 1;
#X connect 33 0 1 0;
