#N canvas 601 114 414 732 10;
#X obj 8 6 cnv 15 400 30 empty empty dxklib 20 12 0 20 -261682 -66577
0;
#X text 305 10 Derek Kwan \, 2016;
#X obj 8 36 cnv 15 400 30 empty empty resobank~ 20 12 0 20 -232576
-66577 0;
#X obj 8 313 cnv 15 400 250 empty empty inlet 20 12 0 15 -261682 -66577
0;
#X obj 8 557 cnv 15 400 50 empty empty outlet 20 12 0 15 -232576 -66577
0;
#X obj 8 606 cnv 15 400 40 empty empty args 20 12 0 15 -261682 -66577
0;
#X obj 175 241 dac~ 1 2;
#X text 250 43 frequency resonator bank;
#X obj 175 197 dxklib/resobank~ 200 400 800 -mode abs;
#X obj 14 193 dxklib/resobank~ 1 1.5 2;
#X obj 175 164 bng 15 250 50 0 empty empty empty 17 7 0 10 -262144
-1 -1;
#X msg 16 160 440;
#X text 39 391 bang - if no prev float given \, uses first freq as
fundamental with new attack \, else uses previous float;
#X text 44 449 mode (sym) - sets mode;
#X text 43 431 MESSAGES (see flags for more info):;
#X text 43 464 ramp (f) - set ramping/attack time;
#X text 59 624 floats - frequencies for resonator bank (up to 30 freqs)
;
#X text 66 583 sig~ - signal;
#X obj 8 647 cnv 15 400 80 empty empty flags 20 12 0 15 -232576 -66577
0;
#X text 103 648 optional \, come after argts \, preceded by -;
#X text 105 661 * = default;
#X text 44 167 RELATIVE FREQS (rel);
#X text 212 176 ABSOLUTE FREQS (abs);
#X text 68 678 -mode (sym): set freq specification mode(rel* \, abs)
;
#X text 66 696 -ramp (f): set ramping/attack time in ms (1*);
#X text 41 334 float - using float as fundamental \, starts a new attack
with given relative freqs (if mode abs \, relates all freqs to first
given freq);
#X text 17 332 1;
#X text 14 483 2 list - frequency list given according to mode;
#X text 14 504 3 list - amplitude list (defaults to 1 for all);
#X text 12 523 4 list - ring time (time to decay 60 dB) list in ms
(defaults to 1000 for all);
#X msg 50 131 1.5 2.5 4 6.25 6;
#X text 48 108 freqs;
#X msg 327 134 1 0.2 0.5;
#X text 328 112 amps;
#X text 3 143 fund;
#X text 100 77 ring times;
#X msg 100 98 500 100 2000;
#X text 253 90 set ramp/att time;
#X msg 253 110 ramp 1000;
#X msg 177 132 mode rel;
#X text 178 110 set mode;
#X text 78 284 SEE SINBANK~ FOR A NON-ENVELOPED VERSION;
#X connect 8 0 6 0;
#X connect 8 0 6 1;
#X connect 9 0 6 0;
#X connect 9 0 6 1;
#X connect 10 0 8 0;
#X connect 11 0 9 0;
#X connect 30 0 9 1;
#X connect 32 0 8 2;
#X connect 36 0 9 3;
#X connect 38 0 8 0;
#X connect 39 0 8 0;
