#N canvas 513 173 412 651 10;
#X obj 8 6 cnv 15 400 30 empty empty dxklib 20 12 0 20 -261682 -66577
0;
#X text 305 10 Derek Kwan \, 2016;
#X obj 8 36 cnv 15 400 30 empty empty sinbank~ 20 12 0 20 -232576 -66577
0;
#X obj 8 313 cnv 15 400 180 empty empty inlet 20 12 0 15 -261682 -66577
0;
#X obj 8 494 cnv 15 400 50 empty empty outlet 20 12 0 15 -232576 -66577
0;
#X obj 8 543 cnv 15 400 40 empty empty args 20 12 0 15 -261682 -66577
0;
#X obj 88 274 dac~ 1 2;
#X text 43 393 mode (sym) - sets mode;
#X text 42 375 MESSAGES (see flags for more info):;
#X text 59 561 floats - frequencies for resonator bank (up to 30 freqs)
;
#X text 66 520 sig~ - signal;
#X obj 8 584 cnv 15 400 60 empty empty flags 20 12 0 15 -232576 -66577
0;
#X text 103 585 optional \, come after argts \, preceded by -;
#X text 105 598 * = default;
#X text 44 167 RELATIVE FREQS (rel);
#X text 212 176 ABSOLUTE FREQS (abs);
#X text 68 615 -mode (sym): set freq specification mode(rel* \, abs)
;
#X text 17 332 1;
#X text 17 417 2 list - frequency list given according to mode;
#X text 17 438 3 list - amplitude list (defaults to 1 for all);
#X msg 50 131 1.5 2.5 4 6.25 6;
#X text 48 108 freqs;
#X msg 327 134 1 0.2 0.5;
#X text 328 112 amps;
#X text 3 143 fund;
#X msg 177 132 mode rel;
#X text 178 110 set mode;
#X text 278 45 sine oscillator bank;
#X text 77 290 SEE RESOBANK~ FOR AN ENVELOPED VERSION;
#X text 41 334 float/sig - sets float as fundamental (if mode abs \,
relates all freqs to first freq);
#X text 16 466 4 phase - set phase 0-1;
#X obj 14 193 dxklib/sinbank~ 1 1.5 2;
#X obj 175 197 dxklib/sinbank~ 200 400 800 -mode abs;
#X text 164 73 set phase;
#X msg 166 93 0;
#X floatatom 7 159 5 0 0 0 - - -, f 5;
#X obj 12 84 loadbang;
#X msg 12 106 440;
#X obj 22 247 *~ 0;
#X obj 56 229 tgl 15 0 empty empty empty 17 7 0 10 -262144 -1 -1 0
1;
#X text 53 214 SOUND;
#X obj 177 249 *~ 0;
#X obj 211 231 tgl 15 0 empty empty empty 17 7 0 10 -262144 -1 -1 0
1;
#X text 208 216 SOUND;
#X connect 20 0 31 1;
#X connect 22 0 32 2;
#X connect 25 0 32 0;
#X connect 31 0 38 0;
#X connect 32 0 41 0;
#X connect 34 0 31 3;
#X connect 35 0 31 0;
#X connect 36 0 37 0;
#X connect 37 0 35 0;
#X connect 38 0 6 0;
#X connect 38 0 6 1;
#X connect 39 0 38 1;
#X connect 41 0 6 0;
#X connect 41 0 6 1;
#X connect 42 0 41 1;
