#N canvas 122 149 696 632 12;
#X obj 8 6 cnv 15 420 30 empty empty pdkm 20 12 0 20 -261682 -66577
0;
#X text 305 10 Derek Kwan \, 2016;
#X obj 8 36 cnv 15 420 30 empty empty dkclnoiz~ 20 12 0 20 -232576
-66577 0;
#X obj 8 296 cnv 15 420 120 empty empty inlet 20 12 0 15 -261682 -66577
0;
#X obj 8 363 cnv 15 420 30 empty empty outlet 20 12 0 15 -232576 -66577
0;
#X obj 8 392 cnv 15 420 50 empty empty args 20 12 0 15 -261682 -66577
0;
#X obj 26 212 dac~ 1 2;
#N canvas 729 377 445 278 META 0;
#X text 2 117 VERSION 0.1;
#X text 2 135 AUTHOR Derek Kwan;
#X text 4 155 RELEASE_DATE 2016;
#X text 1 97 LIBRARY pdkm;
#X text 1 78 OUTLET_0 signal;
#X text 2 175 WEBSITE http://www.derekxkwan.com/code/puredata-code.html
;
#X text 0 57 INLET_0 dummy;
#X text 0 0 KEYWORDS dkclnoiz clipnoise supercollider;
#X text 4 38 DESCRIPTION output -1 or 1 randomly;
#X text -1 19 LICENSE GPL v3;
#X restore 18 453 pd META;
#X obj 27 174 *~ 0;
#X obj 87 88 tgl 15 0 empty empty sound 0 -7 0 10 -262144 -1 -1 0 1
;
#X text 63 320 1 - dummy;
#X text 91 369 signal~;
#X obj 177 109 bang~;
#X obj 241 104 tgl 15 0 empty empty graph 0 -7 0 10 -262144 -1 -1 0
1;
#N canvas 0 50 450 250 (subpatch) 0;
#X array \$0-clnoiz 64 float 3;
#A 0 1 1 -1 -1 -1 -1 -1 -1 -1 -1 -1 -1 1 1 -1 1 1 -1 1 1 -1 1 -1 1
-1 -1 1 1 1 1 1 -1 -1 -1 -1 1 1 -1 -1 -1 -1 1 1 -1 1 -1 -1 -1 1 1 1
1 1 1 -1 1 1 -1 1 1 -1 -1 -1 1;
#X coords 0 1 64 -1 200 140 1;
#X restore 292 87 graph;
#X obj 121 229 tabwrite~ \$0-clnoiz;
#X obj 119 173 spigot;
#X text 63 413 none;
#X text 243 46 output -1 or 1 randomly;
#X text 93 270 adaptation of SuperCollider's ClipNoise;
#X obj 27 114 pdkm/dkclnoiz~ 1;
#X connect 8 0 6 0;
#X connect 8 0 6 1;
#X connect 9 0 8 1;
#X connect 12 0 16 0;
#X connect 13 0 16 1;
#X connect 16 0 15 0;
#X connect 20 0 8 0;
#X connect 20 0 15 0;
