#N canvas 456 97 521 642 10;
#X obj 8 6 cnv 15 420 30 empty empty pdkm 20 12 0 20 -261682 -66577
0;
#X text 305 10 Derek Kwan \, 2016;
#X obj 8 260 cnv 15 420 100 empty empty inlet 20 12 0 15 -261682 -66577
0;
#N canvas 714 279 839 384 loadsound 0;
#X obj 246 40 table \$0-helpsnd;
#X obj 252 64 loadbang;
#X obj 252 86 \$0;
#X obj 253 157 soundfiler;
#N canvas 309 265 677 387 phasread 0;
#X obj 336 28 inlet;
#X obj 467 28 inlet;
#X obj 336 50 t b f;
#X obj 242 126 samplerate~;
#X obj 296 187 /;
#X obj 293 297 phasor~;
#X obj 296 228 * 1;
#X obj 350 172 t b f;
#X obj 293 341 outlet~;
#X text 385 28 sample size;
#X text 508 27 rate;
#X text 34 17 PHASREAD~: sample indexer abstraction;
#X obj 577 31 inlet;
#X text 614 32 phase;
#X text 30 75 in1: sample size;
#X text 28 94 in2: rate;
#X text 29 114 in3: phase;
#X text 28 154 DEREK KWAN \, 2016;
#X text 36 35 using phasor~;
#X obj 293 319 *~ 1;
#X msg 429 151 0;
#X connect 0 0 2 0;
#X connect 1 0 7 0;
#X connect 2 0 3 0;
#X connect 2 0 20 0;
#X connect 2 1 4 1;
#X connect 2 1 19 1;
#X connect 3 0 4 0;
#X connect 4 0 6 0;
#X connect 5 0 19 0;
#X connect 6 0 5 0;
#X connect 7 0 6 0;
#X connect 7 1 6 1;
#X connect 12 0 5 1;
#X connect 19 0 8 0;
#X connect 20 0 5 1;
#X restore 218 258 pd phasread;
#X text 446 46 rate;
#X obj 101 100 cnv 15 100 60 empty empty empty 20 12 0 14 -233017 -66577
0;
#X obj 102 106 bng 15 250 50 0 empty empty empty 17 7 0 10 -262144
-1 -1;
#X text 120 103 reset to beg;
#X obj 103 128 bng 15 250 50 0 empty empty empty 17 7 0 10 -262144
-1 -1;
#X text 120 127 load sound;
#X msg 155 193 0;
#X obj 72 203 openpanel;
#X obj 72 225 t s b;
#X obj 72 295 pack s f;
#X obj 108 254 \$0;
#X msg 72 317 read -resize \$1 \$2-helpsnd;
#X obj 355 49 r \$0-helprate;
#X obj 217 285 s~ \$0-phasread;
#X obj 187 21 bng 15 250 50 0 empty empty empty 17 7 0 10 -262144 -1
-1;
#X msg 253 114 read -resize ../sounds/255814__derekxkwan__bach-marimba.wav
\$1-helpsnd;
#X connect 1 0 2 0;
#X connect 2 0 20 0;
#X connect 3 0 4 0;
#X connect 4 0 18 0;
#X connect 7 0 11 0;
#X connect 9 0 12 0;
#X connect 11 0 4 2;
#X connect 12 0 13 0;
#X connect 13 0 14 0;
#X connect 13 1 15 0;
#X connect 14 0 16 0;
#X connect 15 0 14 1;
#X connect 16 0 3 0;
#X connect 17 0 4 1;
#X connect 19 0 2 0;
#X connect 20 0 3 0;
#X coords 0 -1 1 1 100 60 1 100 100;
#X restore 139 178 pd loadsound;
#X obj 18 178 *~ 0;
#X obj 65 164 tgl 15 0 empty empty empty 17 7 0 10 -262144 -1 -1 0
1;
#X text 83 162 sound;
#X obj 18 213 dac~ 1 2;
#X text 19 95 sample index;
#X text 272 110 offset;
#X obj 323 91 vsl 15 128 0 1 0 0 \$0-helprate empty rate 0 -9 0 10
-262144 -1 -1 12700 1;
#X floatatom 320 230 5 0 0 0 - - -, f 5;
#X obj 349 80 loadbang;
#X msg 349 102 1;
#X obj 8 36 cnv 15 420 30 empty empty dkgrnrd~ 20 12 0 20 -232576
-66577 0;
#X text 61 279 1) sig~ - sample index;
#X obj 7 354 cnv 15 420 30 empty empty outlet 20 12 0 15 -232576 -66577
0;
#X text 97 357 1) sig~ - granular output;
#X obj 7 422 cnv 15 420 190 empty empty flags 20 12 0 15 -232576 -66577
0;
#X text 22 452 -set (symbol) : set array;
#X text 80 291 msg - flag + argt (ie "grainrate 3" \, note no -);
#X text 61 309 2) float - transposition in halfsteps;
#X text 61 328 3) float - offset;
#X text 102 423 optional \, come after argts \, preceded by -;
#X text 104 436 * = default;
#X text 19 490 -randtp (int): randomize transposition amt (1:yes \,
0:no*);
#X text 20 502 -randamp (int): randomize amplitudes (1:yes* \, 0:no)
;
#X text 19 515 -randsizeamt (f): random size amt in ms (0.5*);
#X text 18 528 -randtpamt (f): random transposition in hs (0.01*);
#X text 17 539 -randampamt (f): random amplitude amt (0.01*);
#X text 19 550 -posvar (f): position variance in ms (1.0*);
#X text 21 563 -hopvar (f): hopsize var b/w grains (x grainrate \,
0.5*);
#X text 22 573 -grainrate (int): m/s b/w each grain;
#X obj 7 381 cnv 15 420 40 empty empty args 20 12 0 15 -261682 -66577
0;
#X text 97 384 1) array name;
#X text 269 42 granular buffer player;
#X text 131 110 transposition (hs);
#X obj 19 141 pdkm/dkgrnrd~ \$0-helpsnd -grainrate 5;
#X text 21 464 -overlap (int) : number of overlapping grains (64*)
;
#X obj 19 119 r~ \$0-phasread;
#X text 21 477 -randsize (int): randomize grain sizes (1:yes* \, 0:no)
;
#X text 21 586 -env (sym): grain envelope (hanning* \, tukey);
#N canvas 571 168 374 272 META 0;
#X text 0 76 INLET_1 float;
#X text 0 95 INLET_2 float;
#X text 2 153 VERSION 0.1;
#X text 2 171 AUTHOR Derek Kwan;
#X text 3 189 RELEASE_DATE 2016;
#X text 4 208 WEBSITE http://www.derekxkwan.com/code/puredata-code.html
;
#X text 1 133 LIBRARY pdkm;
#X text 0 38 DESCRIPTION granular buffer player;
#X text 0 57 INLET_0 signal message;
#X text 1 114 OUTLET_0 signal;
#X text 0 19 LICENSE GPL v2;
#X text 0 0 KEYWORDS granular soundfile signal dkgrnrd;
#X restore 13 621 pd META;
#X connect 4 0 7 0;
#X connect 4 0 7 1;
#X connect 5 0 4 1;
#X connect 10 0 11 0;
#X connect 12 0 13 0;
#X connect 13 0 10 0;
#X connect 37 0 4 0;
#X connect 39 0 37 0;
