#N canvas 901 165 641 720 12;
#X obj 8 6 cnv 15 420 30 empty empty pdkm 20 12 0 20 -261682 -66577
0;
#X text 305 10 Derek Kwan \, 2016;
#X obj 8 36 cnv 15 420 30 empty empty dklmunge 20 12 0 20 -232576 -66577
0;
#X obj 20 271 cnv 15 420 225 empty empty inlet 20 12 0 15 -261682 -66577
0;
#X obj 19 497 cnv 15 420 30 empty empty outlet 20 12 0 15 -232576 -66577
0;
#X obj 20 527 cnv 15 420 150 empty empty args 20 12 0 15 -261682 -66577
0;
#N canvas 733 375 374 272 META 0;
#X text 3 183 VERSION 0.1;
#X text 3 201 AUTHOR Derek Kwan;
#X text 4 219 RELEASE_DATE 2016;
#X text 5 238 WEBSITE http://www.derekxkwan.com/code/puredata-code.html
;
#X text 2 163 LIBRARY pdkm;
#X text 2 144 OUTLET_0 signal;
#X text 0 76 INLET_1 float;
#X text 1 92 INLET_2 float;
#X text 0 0 KEYWORDS adsr envelope dkadsr;
#X text 0 38 DESCRIPTION triggered adsr envelope generator;
#X text 0 57 INLET_0 float;
#X text 0 110 INLET_3 float;
#X text 1 126 INLET_4 float;
#X text 0 19 LICENSE GPL v3;
#X restore 34 689 pd META;
#X text 326 41 list munger;
#X text 59 557 none for now;
#X text 23 299 1) bang - trigger output;
#X text 22 322 2) list - list to munge;
#X text 18 343 3) list - munger method and its params;
#X text 19 393 4) f - turn munging on(1) or off (0);
#X text 109 500 1) list - munged lists;
#N canvas 553 194 1156 507 dklmunge-mungers 0;
#X text 4 5 MUNGERS:;
#X text 5 83 faro - faro shuffle;
#X text 13 179 rev - reverse list;
#X text 13 200 revrot (f) - reverse then rotate list;
#X text 544 31 rot (f) - rotate list;
#X text 7 104 fyshuf - fisher-yates shuffle;
#X text 7 25 none - do nothing;
#X text 4 232 TO COME:;
#X text 5 264 add (f or list) - add by element sequentially;
#X text 2 287 sub (f or list) - substract by list sequentially;
#X text 2 310 mul (f or list) - multiply by list sequentially;
#X text 1 331 div (f or list) - divide by list sequentially;
#X text 5 361 sum - add up everything in the list;
#X text 3 381 prod - multiply up everything in the list;
#X text 5 410 min - find list minimum;
#X text 4 436 max - find list maximum;
#X text 5 458 avg - find list average;
#X text 5 484 qsort - quicksort list;
#X text 12 133 group (f) - output in groups of f (prepended by l0 \,
l1 \, l2...);
#X text 547 262 deinter(f) - output f lists deinterlaced (prepended
by l0 \, l1 \, l2...);
#X text 548 343 subst (a)(list) - substitute first arg with second
arg(s);
#X text 548 370 swap (f f pairs) - swap 1st idx by 2nd \, 3rd by 4th
\, ...;
#X text 544 316 randelt (f)- output f random elt(s);
#X text 545 399 ref (f) - get fth elt;
#X text 5 347 pow (f or list) - raise by list sequentially;
#X text 2 62 everyn (f=n f=offset) - output every nth elt with offset
;
#X text 544 92 sum - adds all float args together;
#X text 546 112 prod - multiplies all float args together;
#X text 545 55 rpt1 (f=idx \, f=rpt \, pairs) = takes pairs \, repeats
idx rpt times;
#X text 5 43 avg - sums all float args and divides by number of ALL
elts;
#X restore 282 237 pd dklmunge-mungers;
#X text 95 361 see pd dklmunge-mungers;
#X obj 68 209 pdkm/dklmunge;
#X msg 41 118 1 2 3 4 5 6 7;
#X msg 260 131 list rev;
#X obj 34 172 bng 15 250 50 0 empty empty empty 17 7 0 10 -262144 -1
-1;
#X obj 68 234 print;
#X msg 257 159 list rot 3;
#X msg 252 105 list fyshuf;
#X msg 237 77 list faro;
#X obj 225 196 tgl 15 0 empty empty munge 17 7 0 12 -262144 -1 -1 1
1;
#X obj 334 178 loadbang;
#X msg 334 203 1;
#X msg 362 74 list rpt1 3 1 2 6;
#X msg 368 102 list everyn 2 1;
#X connect 16 0 20 0;
#X connect 17 0 16 1;
#X connect 18 0 16 2;
#X connect 19 0 16 0;
#X connect 21 0 16 2;
#X connect 22 0 16 2;
#X connect 23 0 16 2;
#X connect 24 0 16 3;
#X connect 25 0 26 0;
#X connect 26 0 24 0;
#X connect 27 0 16 2;
#X connect 28 0 16 2;
