#N canvas 387 58 460 415 10;
#X obj 8 6 cnv 15 420 30 empty empty pdkm 20 12 0 20 -261682 -66577
0;
#X text 305 10 Derek Kwan \, 2016;
#X obj 8 36 cnv 15 420 30 empty empty dkmagikp~ 20 12 0 20 -232576 -66577
0;
#X obj 7 188 cnv 15 420 120 empty empty inlet 20 12 0 15 -261682 -66577
0;
#X obj 7 303 cnv 15 420 30 empty empty outlet 20 12 0 15 -232576 -66577
0;
#X obj 7 330 cnv 15 420 40 empty empty args 20 12 0 15 -261682 -66577
0;
#X text 97 306 1) sig~ - signal;
#X obj 174 156 dac~ 1 2;
#X text 67 334 1) float - frequency;
#N canvas 735 372 374 272 META 0;
#X text 3 150 VERSION 0.1;
#X text 3 168 AUTHOR Derek Kwan;
#X text 4 186 RELEASE_DATE 2016;
#X text 5 205 WEBSITE http://www.derekxkwan.com/code/puredata-code.html
;
#X text 2 130 LIBRARY pdkm;
#X text 2 111 OUTLET_0 signal;
#X text 0 76 INLET_1 float;
#X text 0 0 KEYWORDS karplus strong guitar synthesis dkmagikp;
#X text 0 38 DESCRIPTION karplus-strong guitar synthesizer;
#X text 0 57 INLET_0 float bang;
#X text -1 94 INLET_2 float;
#X text 0 19 LICENSE GPL v3;
#X restore 9 380 pd META;
#X text 187 44 karplus-strong guitar synthesizer;
#X obj 176 123 pdkm/dkmagikp~ 440 0.995;
#X obj 154 85 bng 15 250 50 0 empty empty empty 17 7 0 10 -262144 -1
-1;
#X msg 194 88 800;
#X text 70 207 1) float - set frequency and trigger new attack;
#X text 88 226 bang - trigger new attack with previous freq;
#X text 68 246 2) float - set frequency without triggering output;
#X text 66 267 3) float - set feedback coeff (best b/w 0.99 and 1)
;
#X text 65 356 2) float - feedback coeff (optional \, default 0.995)
;
#X connect 11 0 7 0;
#X connect 11 0 7 1;
#X connect 12 0 11 0;
#X connect 13 0 11 0;
