#N canvas 1200 176 458 791 12;
#X obj 8 6 cnv 15 420 30 empty empty pdkm 20 12 0 20 -261682 -66577
0;
#X text 290 9 Derek Kwan \, 2016;
#X obj 8 36 cnv 15 420 30 empty empty dkmkv 20 12 0 20 -232576 -66577
0;
#X obj 17 301 cnv 15 420 240 empty empty inlet 20 12 0 15 -261682 -66577
0;
#X obj 17 547 cnv 15 420 60 empty empty outlet 20 12 0 15 -232576 -66577
0;
#X obj 16 585 cnv 15 420 150 empty empty args 20 12 0 15 -261682 -66577
0;
#N canvas 944 285 476 220 META 0;
#X text 0 123 VERSION 0.1;
#X text 0 141 AUTHOR Derek Kwan;
#X text 1 159 RELEASE_DATE 2016;
#X text 2 178 WEBSITE http://www.derekxkwan.com/code/puredata-code.html
;
#X text -1 103 LIBRARY pdkm;
#X text 0 19 LICENSE GPL v2;
#X text 0 57 INLET_0 float \, message \, bang;
#X text 1 81 OUTLET_0 float;
#X text 1 0 KEYWORDS dkmkv first-order markov float;
#X text 2 38 DESCRIPTION first-order markov analysis/synthesis;
#X restore 23 753 pd META;
#X obj 16 623 cnv 15 420 120 empty empty flags 20 12 0 15 -232576 -66577
0;
#X text 19 86 pitch classes but can change). "rec" mode records;
#X text 16 102 the incoming pitch classes \, "play" mode generates
;
#X text 16 119 new ones based on analyzed data;
#X msg 44 154 rec;
#X msg 91 155 play;
#X obj 25 174 bng 15 250 50 0 empty empty empty 17 7 0 10 -262144 -1
-1;
#X msg 181 197 dump;
#X text 96 304 1) "rec" - record mode;
#X text 28 320 "play" - play mode;
#X text 29 337 "clear" - clears analysis;
#X text 27 351 "prev" - sets previous note;
#X text 36 376 "dump" - prints analysis to pd window;
#X text 31 393 "seed" - change random seed;
#X text 28 478 float - REC: records in analysis;
#X text 96 587 NONE;
#X text 96 629 * = default;
#X text 15 657 -dim (f) = sets analysis dimension (12*);
#X text 21 426 "mode (f)" - 0: play mode \, 1: rec mode;
#X text 26 409 "dim (f)" - sets dim for analysis \, clears old one
;
#X text 23 445 "offset (f)" - sets offset of pitch classes;
#X text 15 682 -offset (f) = sets offset of pitch classes (0*);
#X text 13 702 -seed (f) = sets random seed;
#X text 89 603 Note: defaults to play mode;
#X text 40 133 1;
#X text 139 146 2;
#X text 92 134 3;
#X text 10 152 4;
#X text 104 550 1) float - generated output;
#X text 114 41 first-order markov analysis/synthesis;
#X text 19 68 first-order markov analysis (defaults to 0-11;
#X text 17 721 -outn (f) = number of notes to output each time (1*)
;
#X text 25 515 bang - PLAY: generates new note(s);
#X text 63 493 PLAY: sets prev note \, generates new note(s);
#X text 27 461 "outn (f)" - number of notes to output each time;
#X msg 268 199 outn 2;
#X obj 77 248 print dkmkv;
#X msg 136 169 10 \, 10 \, 13 \, 12 \, 10 \, 10 \, 12 \, 10 \, 13 \,
11;
#X obj 77 223 pdkm/dkmkv -offset 10 -outn 5;
#X connect 11 0 45 0;
#X connect 12 0 45 0;
#X connect 13 0 45 0;
#X connect 14 0 45 0;
#X connect 42 0 45 0;
#X connect 44 0 45 0;
#X connect 45 0 43 0;
