#N canvas 116 187 595 678 12;
#X obj 16 4 cnv 15 420 30 empty empty pdkm 20 12 0 20 -261682 -66577
0;
#X text 300 8 Derek Kwan \, 2016;
#X obj 16 34 cnv 15 420 30 empty empty dkpink~ 20 12 0 20 -232576 -66577
0;
#X obj 16 294 cnv 15 420 120 empty empty inlet 20 12 0 15 -261682 -66577
0;
#X obj 16 361 cnv 15 420 30 empty empty outlet 20 12 0 15 -232576 -66577
0;
#X obj 16 390 cnv 15 420 50 empty empty args 20 12 0 15 -261682 -66577
0;
#X obj 34 210 dac~ 1 2;
#N canvas 729 377 508 278 META 0;
#X text 3 135 VERSION 0.1;
#X text 3 153 AUTHOR Derek Kwan;
#X text 5 173 RELEASE_DATE 2016;
#X text 2 115 LIBRARY pdkm;
#X text 2 96 OUTLET_0 signal;
#X text 0 19 LICENSE GPL v3;
#X text 3 193 WEBSITE http://www.derekxkwan.com/code/puredata-code.html
;
#X text 0 0 KEYWORDS dkpink kasdin power law 1/f^alpha pink noise;
#X text 4 39 DESCRIPTION 1/f^alpha noise generator;
#X text 0 57 INLET_0 dummy;
#X text 2 79 INLET_1 float;
#X restore 26 451 pd META;
#X text 221 44 1/f^alpha noise generator;
#X obj 148 108 vsl 15 128 0 2 0 0 empty empty alpha 0 -9 0 10 -203904
-1 -1 0 1;
#X floatatom 114 250 5 0 0 0 - - -, f 5;
#X obj 35 172 *~ 0;
#X obj 95 86 tgl 15 0 empty empty sound 0 -7 0 10 -262144 -1 -1 0 1
;
#X obj 185 72 cnv 15 325 100 empty empty empty 20 12 0 14 -204800 -66577
0;
#X text 192 78 based on N. Jeremy Kasdin's;
#X text 193 92 Discrete Simulation of Colored Noise;
#X text 192 106 and Stochastic Processes and;
#X text 190 121 1/f^alpha Power Law Noise Generation;
#X text 189 140 IEEE \, vol. 83 \, No. 5 \, May 1995 \, p.882;
#X obj 175 177 cnv 15 325 100 empty empty empty 20 12 0 14 -261234
-66577 0;
#X text 177 178 y[0] = w-a[k-1]*y[n-1]-a[k-2]*y[n-2]-...;
#X text 183 205 where w = random val [-1 \, 1];
#X text 184 221 a[0]=1;
#X text 184 240 a[k]=(k-1-(alpha/2))*(a[k-1]/k);
#X text 71 318 1 - dummy;
#X text 71 338 2 - float: alpha val [0 \, 2];
#X text 99 367 signal~;
#X text 71 411 1 - float: alphaa val [0 \, 2];
#X obj 16 122 pdkm/dkpink~ 1;
#X connect 9 0 10 0;
#X connect 9 0 28 1;
#X connect 11 0 6 0;
#X connect 11 0 6 1;
#X connect 12 0 11 1;
#X connect 28 0 11 0;
