#N canvas 565 275 460 335 10;
#X obj 8 6 cnv 15 420 30 empty empty pdkm 20 12 0 20 -261682 -66577
0;
#X text 305 10 Derek Kwan \, 2016;
#X obj 8 36 cnv 15 420 30 empty empty dkpop~ 20 12 0 20 -232576 -66577
0;
#X obj 7 188 cnv 15 420 70 empty empty inlet 20 12 0 15 -261682 -66577
0;
#X obj 7 218 cnv 15 420 30 empty empty outlet 20 12 0 15 -232576 -66577
0;
#X obj 7 245 cnv 15 420 40 empty empty args 20 12 0 15 -261682 -66577
0;
#X text 97 221 1) sig~ - signal;
#X floatatom 174 89 5 0 0 0 - - -, f 5;
#X obj 174 134 *~ 0;
#X obj 271 147 tgl 15 0 empty empty empty 17 7 0 10 -262144 -1 -1 0
1;
#X text 293 146 sound;
#X obj 174 156 dac~ 1 2;
#N canvas 848 456 374 275 META 0;
#X text 2 117 VERSION 0.1;
#X text 2 135 AUTHOR Derek Kwan;
#X text 3 153 RELEASE_DATE 2016;
#X text 4 172 WEBSITE http://www.derekxkwan.com/code/puredata-code.html
;
#X text 1 97 LIBRARY pdkm;
#X text 1 78 OUTLET_0 signal;
#X text 0 19 LICENSE GPL v3;
#X text 0 57 INLET_0 float signal;
#X text 0 38 DESCRIPTION random impulses of adjustable density;
#X text 0 0 KEYWORDS dkpop impulses density dust supercollider;
#X restore 12 301 pd META;
#X text 156 44 random impulses of adjustable density;
#X text 97 248 1) float - avg num of impulses per second;
#X obj 174 112 pdkm/dkpop~ 10;
#X text 106 67 adapted from SuperCollider's Dust;
#X text 97 191 1) f/sig~ - avg num of impulses per second;
#X connect 7 0 15 0;
#X connect 8 0 11 0;
#X connect 9 0 8 1;
#X connect 15 0 8 0;
