#N canvas 637 191 570 692 10;
#X text 13 86 Maps incoming floats to midi notes with the following
formula:;
#X text 21 140 midinote = (input % n) + floor(input/n)*12 + offset
;
#X text 22 171 where n = number of notes in scale;
#X text 12 216 Meaning \, given the specified offset \, the input maps
to midinotes in a specified scale;
#X floatatom 121 305 5 0 0 0 - - -, f 5;
#X floatatom 119 350 5 0 0 0 - - -, f 5;
#X text 23 283 scale deg input;
#X text 51 349 midi note;
#X text 268 288 change offset;
#X msg 236 305 50;
#X msg 274 304 90;
#X obj 8 6 cnv 15 420 30 empty empty pdkm 20 12 0 20 -261682 -66577
0;
#X text 305 10 Derek Kwan \, 2016;
#X obj 8 36 cnv 15 420 30 empty empty dkscldeg 20 12 0 20 -232576 -66577
0;
#X text 205 35 degrees of scale -> midi notes;
#X text 226 52 (ported from SuperCollider);
#X obj 119 328 pdkm/dkscldeg bartok 60;
#X obj 26 414 cnv 15 420 100 empty empty inlet 20 12 0 15 -261682 -66577
0;
#X obj 26 566 cnv 15 420 70 empty empty args 20 12 0 15 -261682 -66577
0;
#X obj 26 515 cnv 15 420 50 empty empty outlet 20 12 0 15 -232576 -66577
0;
#N canvas 1250 352 374 272 META 0;
#X text 1 136 VERSION 0.1;
#X text 1 154 AUTHOR Derek Kwan;
#X text 2 172 RELEASE_DATE 2016;
#X text 3 191 WEBSITE http://www.derekxkwan.com/code/puredata-code.html
;
#X text 0 116 LIBRARY pdkm;
#X text 0 38 DESCRIPTION maps scale degrees to midi notes;
#X text 3 97 OUTLET_0 float;
#X text 0 0 KEYWORDS scale degrees midi notes mapping dkscldeg;
#X text 2 76 INLET_1 float;
#X text 0 59 INLET_0 float message;
#X text 0 19 LICENSE GPL v3;
#X restore 27 647 pd META;
#X text 69 439 1: float - scale degree;
#X text 66 472 2: symbol - scale name;
#X text 69 491 3: float - offset;
#X text 67 534 float - midi note;
#X text 64 593 1: symbol - scale name;
#X text 63 613 2: float - offset;
#X msg 175 269 scale major;
#X msg 268 268 scale whole;
#X text 87 454 message - "scale (symbol)": change scale;
#X text 184 250 change scale;
#N canvas 372 178 427 450 scale_names 0;
#X text 19 21 SCALE NAMES:;
#X text 24 46 7 notes \, 12 halfsteps/oct;
#N canvas 1 61 559 308 7n12hso 0;
#X text 34 17 major = 0 \, 2 \, 4 \, 5 \, 7 \, 9 \, 11;
#X text 32 40 ionian = 0 \, 2 \, 4 \, 5 \, 7 \, 9 \, 11;
#X text 34 60 dorian = 0 \, 2 \, 3 \, 5 \, 7 \, 9 \, 10;
#X text 36 76 phrygian = 0 \, 1 \, 3 \, 5 \, 7 \, 8 \, 10;
#X text 35 95 lydian = 0 \, 2 \, 4 \, 6 \, 7 \, 9 \, 11;
#X text 36 115 mixo = 0 \, 2 \, 4 \, 5 \, 7 \, 9 \, 10;
#X text 37 136 aeolian = 0 \, 2 \, 3 \, 5 \, 7 \, 8 \, 10;
#X text 33 153 minor = 0 \, 2 \, 3 \, 5 \, 7 \, 8 \, 10;
#X text 31 172 locrian = 0 \, 1 \, 3 \, 5 \, 6 \, 8 \, 10;
#X text 31 191 harminor = 0 \, 2 \, 3 \, 5 \, 7 \, 8 \, 11;
#X text 32 210 melminor = 0 \, 2 \, 4 \, 5 \, 7 \, 8 \, 10;
#X text 30 231 bartok = 0 \, 2 \, 4 \, 5 \, 7 \, 8 \, 10;
#X text 30 248 neapminor = 0 \, 1 \, 3 \, 5 \, 7 \, 8 \, 11;
#X text 265 14 rominor = 0 \, 2 \, 3 \, 6 \, 7 \, 9 \, 10;
#X text 263 29 superlocrian = 0 \, 1 \, 3 \, 4 \, 6 \, 8 \, 10;
#X text 265 50 spanish = 0 \, 1 \, 4 \, 5 \, 7 \, 8 \, 10;
#X text 264 67 enigmatic = 0 \, 1 \, 4 \, 6 \, 8 \, 10 \, 11;
#X text 266 87 todi = 0 \, 1 \, 3 \, 6 \, 7 \, 8 \, 11;
#X text 263 108 purvi = 0 \, 1 \, 4 \, 6 \, 7 \, 8 \, 11;
#X text 262 128 marva = 0 \, 1 \, 4 \, 6 \, 7 \, 9 \, 11;
#X text 262 147 bhairav = 0 \, 1 \, 4 \, 5 \, 7 \, 8 \, 11;
#X text 259 167 ahirbhairav = 0 \, 1 \, 4 \, 5 \, 7 \, 8 \, 11;
#X text 259 184 leadingwhole = 0 \, 2 \, 4 \, 6 \, 8 \, 10 \, 11;
#X text 28 266 neapmajor = 0 \, 1 \, 3 \, 5 \, 7 \, 9 \, 11;
#X text 257 209 lydianminor = 0 \, 2 \, 4 \, 6 \, 7 \, 8 \, 10;
#X text 259 227 locrianmajor = 0 \, 2 \, 4 \, 5 \, 6 \, 8 \, 10;
#X restore 20 71 pd 7n12hso;
#X text 17 100 8 notes \, 12 halfsteps/oct;
#N canvas 561 289 450 300 8n12hso 0;
#X text 16 16 dim1 = 0 \, 1 \, 3 \, 4 \, 6 \, 7 \, 9 \, 10;
#X text 16 38 dim2 = 0 \, 2 \, 3 \, 5 \, 6 \, 8 \, 9 \, 11;
#X restore 21 128 pd 8n12hso;
#X text 15 155 6 notes \, 12 halfsteps/oct;
#N canvas 1 61 450 300 6n12hso 0;
#X text 31 17 whole = 0 \, 2 \, 4 \, 6 \, 8 \, 10;
#X text 31 40 hexmajor7 = 0 \, 2 \, 4 \, 7 \, 9 \, 11;
#X text 33 58 hexdorian = 0 \, 2 \, 3 \, 5 \, 7 \, 10;
#X text 34 77 hexphrygian = 0 \, 1 \, 3 \, 5 \, 8 \, 10;
#X text 33 99 hexsus = 0 \, 2 \, 5 \, 7 \, 9 \, 10;
#X text 34 121 hexmajor = 0 \, 2 \, 4 \, 5 \, 7 \, 9;
#X text 35 140 hexaeolian = 0 \, 3 \, 5 \, 7 \, 8 \, 10;
#X text 36 160 aug1 = 9 \, 3 \, 4 \, 7 \, 8 \, 11;
#X text 38 182 aug2 = 0 \, 1 \, 4 \, 5 \, 8 \, 9;
#X restore 21 174 pd 6n12hso;
#X text 11 199 5 notes \, 12 halfsteps/oct;
#N canvas 261 327 450 300 5n12hso 0;
#X text 21 29 zhi = 0 \, 2 \, 5 \, 7 \, 9;
#X text 22 49 jiao = 0 \, 3 \, 5 \, 8 \, 10;
#X text 24 71 shang = 0 \, 2 \, 5 \, 7 \, 10;
#X text 23 96 gong = 0 \, 2 \, 4 \, 7 \, 9;
#X text 21 120 minorpent = 0 \, 3 \, 5 \, 7 \, 10;
#X text 17 138 majorpent = 0 \, 2 \, 4 \, 7 \, 9;
#X text 22 160 ritusen = 0 \, 2 \, 5 \, 7 \, 9;
#X text 29 179 egyptian = 0 \, 2 \, 5 \, 7 \, 10;
#X text 33 198 kumoi = 0 \, 2 \, 3 \, 7 \, 9;
#X text 29 215 hirajoshi = 5 \, 12 \, 0 \, 2 \, 3 \, 7 \, 9;
#X text 28 231 iwato = 0 \, 1 \, 5 \, 6 \, 10;
#X text 29 250 chinese = 0 \, 4 \, 6 \, 7 \, 11;
#X text 240 18 indian = 0 \, 4 \, 5 \, 7 \, 10;
#X text 238 39 pelog = 0 \, 1 \, 3 \, 7 \, 8;
#X text 238 56 prometheus = 0 \, 2 \, 4 \, 6 \, 11;
#X text 235 74 scriabin = 0 \, 1 \, 4 \, 7 \, 9;
#X text 22 9 yu = 0 \, 3 \, 5 \, 7 \, 10;
#X restore 13 221 pd 5n12hso;
#X text 13 250 6 notes \, 43 halfsteps/oct;
#N canvas 1 58 450 300 6n43hso 0;
#X text 32 14 partch_o1 = 0 \, 8 \, 14 \, 20 \, 25 \, 34;
#X text 32 34 partch_o2 = 0 \, 7 \, 13 \, 18 \, 27 \, 35;
#X text 30 49 partch_o3 = 0 \, 6 \, 12 \, 21 \, 29 \, 36;
#X text 29 67 partch_o4 = 0 \, 5 \, 15 \, 23 \, 30 \, 37;
#X text 28 86 partch_o5 = 0 \, 10 \, 18 \, 25 \, 31 \, 38;
#X text 26 132 partch_u1 = 0 \, 9 \, 18 \, 23 \, 29 \, 35;
#X text 28 111 partch_o6 = 0 \, 9 \, 16 \, 22 \, 28 \, 33;
#X text 24 149 partch_u2 = 0 \, 8 \, 16 \, 25 \, 30 \, 36;
#X text 24 169 partch_u3 = 0 \, 7 \, 14 \, 22 \, 31 \, 37;
#X text 22 185 partch_u4 = 0 \, 6 \, 13 \, 20 \, 28 \, 38;
#X text 20 205 partch_u5 = 0 \, 5 \, 12 \, 18 \, 25 \, 33;
#X text 21 222 partch_u6 = 0 \, 10 \, 15 \, 21 \, 27 \, 34;
#X restore 21 275 pd 6n43hso;
#X text 8 301 7 notes \, 24 halfsteps/oct;
#N canvas 1 58 628 388 7n24hso 0;
#X text 35 6 ajam = 0 \, 4 \, 8 \, 10 \, 14 \, 18 \, 22;
#X text 34 27 jiharkah = 0 \, 4 \, 8 \, 10 \, 14 \, 18 \, 21;
#X text 34 49 shawqAfza = 0 \, 4 \, 8 \, 10 \, 14 \, 16 \, 22;
#X text 33 72 sikah = 0 \, 3 \, 7 \, 11 \, 14 \, 17 \, 21;
#X text 30 91 sikahDesc = 0 \, 3 \, 7 \, 11 \, 13 \, 17 \, 21;
#X text 34 111 huzam = 0 \, 3 \, 7 \, 9 \, 15 \, 17 \, 21;
#X text 35 130 iraq = 0 \, 3 \, 7 \, 10 \, 13 \, 17 \, 21;
#X text 36 150 bastanikar = 0 \, 3 \, 7 \, 10 \, 13 \, 15 \, 21;
#X text 37 168 mustar - 0 \, 5 \, 7 \, 11 \, 13 \, 17 \, 21;
#X text 37 187 bayati = 0 \, 3 \, 6 \, 10 \, 14 \, 16 \, 20;
#X text 37 204 karjighar = 0 \, 3 \, 6 \, 10 \, 12 \, 18 \, 20;
#X text 37 223 husseini = 0 \, 3 \, 6 \, 10 \, 14 \, 17 \, 21;
#X text 39 239 nahawand = 0 \, 4 \, 6 \, 10 \, 14 \, 16 \, 22;
#X text 38 254 nahawandDesc = 0 \, 4 \, 6 \, 10 \, 14 \, 16 \, 20;
#X text 35 273 farahfaza = 0 \, 4 \, 6 \, 10 \, 14 \, 16 \, 20;
#X text 34 292 murassah = 0 \, 4 \, 6 \, 10 \, 12 \, 18 \, 20;
#X text 32 313 ushaqMashri = 0 \, 4 \, 6 \, 10 \, 14 \, 17 \, 21;
#X text 33 337 rast = 0 \, 4 \, 7 \, 10 \, 14 \, 18 \, 21;
#X text 335 5 rastDesc = 0 \, 4 \, 7 \, 10 \, 14 \, 18 \, 20;
#X text 338 26 suznak = 0 \, 4 \, 7 \, 10 \, 14 \, 16 \, 22;
#X text 338 44 nairuz = 0 \, 4 \, 7 \, 10 \, 14 \, 17 \, 20;
#X text 338 63 yakah - 0 \, 4 \, 7 \, 10 \, 14 \, 18 \, 21;
#X text 338 83 yakahDesc = 0 \, 4 \, 7 \, 10 \, 14 \, 18 \, 20;
#X text 337 100 mahur = 0 \, 4 \, 7 \, 10 \, 14 \, 18 \, 22;
#X text 335 119 hijaz = 0 \, 2 \, 8 \, 10 \, 14 \, 17 \, 20;
#X text 333 139 hijazDesc = 0 \, 2 \, 8 \, 10 \, 14 \, 16 \, 20;
#X text 333 161 zanjaran = 0 \, 2 \, 8 \, 10 \, 14 \, 18 \, 20;
#X text 332 189 zanjaran2 = 0 \, 2 \, 8 \, 10 \, 14 \, 16 \, 22;
#X text 332 212 saba = 0 \, 3 \, 6 \, 8 \, 12 \, 16 \, 20;
#X text 331 231 zamzam = 0 \, 2 \, 6 \, 8 \, 14 \, 16 \, 20;
#X text 332 252 kurd = 0 \, 2 \, 6 \, 10 \, 14 \, 16 \, 20;
#X text 331 270 kijazKarKurd = 0 \, 2 \, 8 \, 10 \, 14 \, 16 \, 22
;
#X text 332 289 nawaAthar = 0 \, 4 \, 6 \, 12 \, 14 \, 16 \, 22;
#X text 332 307 nikriz = 0 \, 4 \, 6 \, 12 \, 14 \, 16 \, 22;
#X text 329 323 atharKurd = 0 \, 2 \, 6 \, 12 \, 14 \, 16 \, 22;
#X restore 20 328 pd 7n24hso;
#X restore 321 383 pd scale_names;
#X text 315 360 SCALE NAMES;
#X connect 4 0 16 0;
#X connect 9 0 16 1;
#X connect 10 0 16 1;
#X connect 16 0 5 0;
#X connect 27 0 16 0;
#X connect 28 0 16 0;
