#N canvas 399 132 560 758 10;
#X obj 8 6 cnv 15 470 30 empty empty pdkm 20 12 0 20 -261682 -66577
0;
#X text 355 13 Derek Kwan \, 2016;
#X obj 8 36 cnv 15 470 30 empty empty dksnbnkr~ 20 12 0 20 -232576
-66577 0;
#X obj 7 363 cnv 15 470 220 empty empty inlet 20 12 0 15 -261682 -66577
0;
#X obj 7 584 cnv 15 470 50 empty empty outlet 20 12 0 15 -232576 -66577
0;
#X obj 7 633 cnv 15 470 40 empty empty args 20 12 0 15 -261682 -66577
0;
#X obj 82 298 dac~ 1 2;
#X text 38 425 mode (sym) - sets mode;
#X text 38 409 MESSAGES (see flags for more info):;
#X text 65 610 sig~ - signal;
#X obj 7 674 cnv 15 470 50 empty empty flags 20 12 0 15 -232576 -66577
0;
#X text 102 675 optional \, come after argts \, preceded by -;
#X text 104 688 * = default;
#X text 238 253 ABSOLUTE FREQS (abs);
#X text 67 705 -mode (sym): set freq specification mode(rel* \, abs)
;
#X text 16 382 1;
#X msg 341 228 1 0.2 0.5;
#X text 342 206 amps;
#X msg 201 233 mode rel;
#X text 202 211 set mode;
#N canvas 864 294 374 272 META 0;
#X text 3 188 VERSION 0.1;
#X text 3 206 AUTHOR Derek Kwan;
#X text 4 224 RELEASE_DATE 2016;
#X text 5 243 WEBSITE http://www.derekxkwan.com/code/puredata-code.html
;
#X text 2 168 LIBRARY pdkm;
#X text 2 149 OUTLET_0 signal;
#X text 0 92 INLET_2 list;
#X text 0 0 KEYWORDS modal frequency bank sine dksnbnkr decay amplitude
;
#X text 0 38 DESCRIPTION sine oscillator bank with signal amp control
;
#X text 0 76 INLET_1 signal float;
#X text 1 56 INLET_0 signal;
#X text 0 108 INLET_3 list;
#X text 3 128 INLET_4 list;
#X text 0 19 LICENSE GPL v3;
#X restore 14 735 pd META;
#X text 58 651 floats - frequencies for oscillator bank (up to 30 freqs)
;
#N canvas 765 348 450 300 related_objects 0;
#X obj 13 8 cnv 15 400 30 empty empty related_objects 20 12 0 15 -261682
-66577 0;
#X obj 19 51 pdkm/dksnbnkd~;
#X obj 20 74 pdkm/dksnbnk~;
#X restore 74 734 pd related_objects;
#X text 314 35 sine oscillator bank;
#X text 273 50 w/ signal amplitude control;
#X text 36 448 float - sets fundamental (if mode abs \, all freqs are
divided by first freq arg);
#X text 40 384 sig~ - amplitude control;
#X text 12 449 2;
#X text 14 485 3 list - frequency list given according to mode;
#X text 15 536 5 list - ring time (time to decay 60 dB) list in ms
(defaults to 1000 for all);
#X text 16 510 4 list - amplitude list (defaults to 1 for all);
#X text 44 319 see dksnbnk~ for a non-enveloped version \, dksnbnkd~
for float or bang triggered version;
#X obj 201 274 pdkm/dksnbnkr~ 200 400 800 -mode abs;
#X text 362 163 ring times;
#X msg 362 184 500 100 2000;
#X msg 150 140 440;
#X text 57 160 RELATIVE FREQS (rel);
#X text 137 123 fund;
#X obj 27 186 pdkm/dksnbnkr~ 1 1.5 2;
#X msg 242 180 150 175 300 450;
#X text 248 160 freqs;
#X obj 28 143 *~;
#X obj 75 115 vline~;
#X msg 91 88 0 \, 1 0.25 0 \, 0 0.25 0.5;
#X text 96 71 TRIGGER AMPLITUDE CONTROL;
#X obj 17 86 sig~ 1;
#X obj 187 116 loadbang;
#X connect 16 0 32 3;
#X connect 18 0 32 0;
#X connect 32 0 6 0;
#X connect 32 0 6 1;
#X connect 34 0 32 4;
#X connect 35 0 38 1;
#X connect 38 0 6 0;
#X connect 38 0 6 1;
#X connect 39 0 32 2;
#X connect 41 0 38 0;
#X connect 42 0 41 1;
#X connect 43 0 42 0;
#X connect 45 0 41 0;
#X connect 46 0 35 0;
