#N canvas 339 102 434 540 10;
#X obj 143 117 bng 15 250 50 0 empty empty empty 17 7 0 10 -262144
-1 -1;
#X obj 143 159 print;
#X text 28 203 Based on "The Euclidean Algorithm Generates Traditional
Musical Rhythms" by Godfried Toussaint;
#X text 28 236 http://cgm.cs.mcgill.ca/~godfried/publications/banff.pdf
;
#X obj 8 6 cnv 15 420 30 empty empty dxkpure 20 12 0 20 -261682 -66577
0;
#X text 305 10 Derek Kwan \, 2016;
#X obj 8 36 cnv 15 420 30 empty empty dxkeuclid 20 12 0 20 -232576
-66577 0;
#X text 239 43 euclidean rhythm generator;
#X obj 21 280 cnv 15 400 100 empty empty inlet 20 12 0 15 -261682 -66577
0;
#X obj 21 432 cnv 15 400 70 empty empty args 20 12 0 15 -261682 -66577
0;
#X text 67 456 1: f - length of euclidean rhythm;
#X text 66 480 2: f - number of hits;
#X text 63 305 1: bang - for output;
#X text 62 325 2: float - length of euclidean rhythm;
#X text 65 344 3: float - number of hits;
#X obj 21 381 cnv 15 400 50 empty empty outlet 20 12 0 15 -232576 -66577
0;
#X text 63 400 list - 1s and 0s with 1s representing hits and 0s representing
rests;
#N canvas 952 263 374 272 META 0;
#X text 0 76 INLET_1 float;
#X text 0 95 INLET_2 float;
#X text 1 115 OUTLET_0 list;
#X text 2 154 VERSION 0.1;
#X text 2 172 AUTHOR Derek Kwan;
#X text 3 190 RELEASE_DATE 2016;
#X text 4 209 WEBSITE http://www.derekxkwan.com/code/puredata.html
;
#X text 0 0 KEYWORDS dxkeuclid euclidean rhythm;
#X text 0 38 DESCRIPTION euclidean rhythm generator;
#X text 0 57 INLET_0 bang;
#X text 1 134 LIBRARY dxkpure;
#X text 0 19 LICENSE GPL v3;
#X restore 22 513 pd META;
#X obj 143 137 dxkpure/dxkeuclid 13 5;
#X connect 0 0 18 0;
#X connect 18 0 1 0;
