#N canvas 899 231 1001 596 10;
#N canvas 538 268 344 183 META 0;
#X text 2 80 VERSION 0.1;
#X text 2 98 AUTHOR Derek Kwan;
#X text 3 116 RELEASE_DATE 2016;
#X text 4 135 WEBSITE http://www.derekxkwan.com/code/puredata.html
;
#X text 1 60 NAME dxkpure;
#X text 1 40 DESCRIPTION various pure data externals;
#X text -1 0 KEYWORDS;
#X text -1 19 LICENSE GPL v3;
#X restore 14 15 pd META;
#X text 16 42 LIST OF OBJECTS;
#X text 18 74 ABSTRACTIONS;
#X text 17 102 dxkbd1~ - bass drum synth;
#X text 13 132 dxkhh1~ - hihat synth;
#X text 16 150 dxksd1~ - snare drum synth;
#X text 18 163 dxkmbang - bang multiplier;
#X text 13 180 dxkmidirt - midi real-time message parser;
#X text 17 196 dxknzgt - nonzero gate;
#X text 20 222 dxkrndgt - gate open x% of the time;
#X text 17 239 dxksyncb - synchronized banger;
#X text 482 105 dxksyncf - synchroinzed floats;
#X text 482 122 dxkvanctr - vanilla counter (can go both up and down)
;
#X text 24 306 EXTERNALS;
#X text 23 323 dxkadsr~ - triggered adsr envelope generator;
#X text 23 340 dxkmetrox - control-rate multiple metro;
#X text 22 357 dxkstut~ - windowed stutter effect;
#X text 22 375 dxkeuclid - outputs euclidean rhythms based on the work
of Godfried Toussaint;
#X text 20 409 dxkernd - random values with exponential distribution
;
#X text 20 431 dxkgrnrd~ - granular sound buffer player;
#X text 19 453 dxklrnd - random values with triangular (linear) distribution
;
#X text 22 500 dxkmagikp~ - karplus-strong guitar synthesizer;
#X text 23 524 dxkrndlst - generate list of random numbers within a
given range;
#X text 482 309 dxkred~ - red noise generator with variable level of
"redness";
#X text 486 342 dxksawlim~ - bandlimited sawtooth wave generator;
#X text 485 363 dxksnbnk~ - sine oscillator bank;
#X text 485 388 dxksnbnkd~ - sine oscillator bank with separate envelopes
with triggered output;
#X text 485 427 dxksnbnkr~ - sine oscillator bank with separate envelopes
and signal amplitude control;
#X text 485 470 dxksqlim~ - bandlimited square wave generator;
#X text 487 495 dxkscldeg - maps scale degrees to midi notes \, ported
from SuperCollider;
#X text 486 529 dxkwesley~ - bitcrusher/downsampler;
#X text 22 116 dxkcospan~ - cosine panner;
#X text 19 258 dxkrunmin - running minimum;
#X text 477 86 dxkrunmax - running maximum;
#X text 480 152 dxkvanphs~ - vanilla 3-delay line phaser/chorus effect
;
#X text 481 138 dxkvandrk - vanilla drunk random number generator;
#X text 20 209 dxkphsrd~ - phasor sound reader abstraction;
#X text 23 482 dxkfm~ - fm synthesis oscillator;
